<?xml version="1.0" encoding="utf-8"?>
<!DOCTYPE svg PUBLIC "-//W3C//DTD SVG 1.1//EN" "http://www.w3.org/Graphics/SVG/1.1/DTD/svg11.dtd">
<svg version="1.1" id="Layer_1" xmlns="http://www.w3.org/2000/svg" xmlns:xlink="http://www.w3.org/1999/xlink" x="0px" y="0px"
	 viewBox="0 0 500 500" enable-background="new 0 0 500 500" xml:space="preserve">
<g>
	<path fill-rule="evenodd" clip-rule="evenodd" fill="#5480A2" d="M73.4,73.4v353.3h353.3V73.4H73.4z M373.2,345.9
		c0,15.8-12.8,28.5-28.5,28.5H154.4c-15.8,0-28.5-12.8-28.5-28.5V155.6c0-15.8,12.8-28.5,28.5-28.5h190.2
		c15.8,0,28.5,12.8,28.5,28.5V345.9z"/>
	<path fill-rule="evenodd" clip-rule="evenodd" fill="#5480A2" d="M325.6,250.7c0,42-34.1,76.1-76.1,76.1c-42,0-76.1-34.1-76.1-76.1
		c0-6.6,0.9-12.9,2.5-19h-21.5v104.6c0,5.2,4.3,9.5,9.5,9.5h171.2c5.3,0,9.5-4.3,9.5-9.5V231.7h-21.5
		C324.7,237.8,325.6,244.2,325.6,250.7z"/>
	<path fill-rule="evenodd" clip-rule="evenodd" fill="#5480A2" d="M249.5,298.3c26.3,0,47.6-21.3,47.6-47.6
		c0-26.3-21.3-47.6-47.6-47.6c-26.3,0-47.6,21.3-47.6,47.6C202,277,223.3,298.3,249.5,298.3z"/>
	<path fill-rule="evenodd" clip-rule="evenodd" fill="#5480A2" d="M335.1,155.6h-28.5c-5.3,0-9.5,4.3-9.5,9.5v28.5
		c0,5.3,4.3,9.5,9.5,9.5h28.5c5.3,0,9.5-4.3,9.5-9.5v-28.5C344.7,159.9,340.4,155.6,335.1,155.6z"/>
</g>
</svg>
