<?xml version="1.0" encoding="utf-8"?>
<!-- Generator: Adobe Illustrator 18.0.0, SVG Export Plug-In . SVG Version: 6.00 Build 0)  -->
<!DOCTYPE svg PUBLIC "-//W3C//DTD SVG 1.1//EN" "http://www.w3.org/Graphics/SVG/1.1/DTD/svg11.dtd">
<svg version="1.1" id="Layer_1" xmlns="http://www.w3.org/2000/svg" xmlns:xlink="http://www.w3.org/1999/xlink" x="0px" y="0px"
	 viewBox="0 0 500 500" enable-background="new 0 0 500 500" xml:space="preserve">
<path fill="#CBD50D" d="M73.4,73.4v353.3h353.3V73.4H73.4z M348.3,199.6c0.1,2.2,0.1,4.4,0.1,6.6c0,67-51,144.4-144.4,144.4
	c-28.7,0-55.3-8.4-77.8-22.8c4,0.5,8,0.7,12.1,0.7c23.8,0,45.6-8.1,63-21.7c-22.2-0.4-40.9-15.1-47.4-35.2c3.1,0.6,6.3,0.9,9.5,0.9
	c4.6,0,9.1-0.6,13.4-1.8c-23.2-4.7-40.7-25.2-40.7-49.7c0-0.2,0-0.4,0-0.6c6.8,3.8,14.7,6.1,23,6.3c-13.6-9.1-22.6-24.6-22.6-42.2
	c0-9.3,2.5-18,6.9-25.5c25,30.7,62.4,50.9,104.6,53c-0.9-3.7-1.3-7.6-1.3-11.6c0-28,22.7-50.7,50.7-50.7c14.6,0,27.8,6.2,37,16
	c11.6-2.3,22.4-6.5,32.2-12.3c-3.8,11.9-11.8,21.8-22.3,28.1c10.3-1.2,20-4,29.1-8C366.9,183.5,358.2,192.4,348.3,199.6z"/>
</svg>
