<?xml version="1.0" encoding="utf-8"?>
<!-- Generator: Adobe Illustrator 18.0.0, SVG Export Plug-In . SVG Version: 6.00 Build 0)  -->
<!DOCTYPE svg PUBLIC "-//W3C//DTD SVG 1.1//EN" "http://www.w3.org/Graphics/SVG/1.1/DTD/svg11.dtd">
<svg version="1.1" id="Layer_1" xmlns="http://www.w3.org/2000/svg" xmlns:xlink="http://www.w3.org/1999/xlink" x="0px" y="0px"
	 viewBox="253 93 445 134" enable-background="new 253 93 445 134" xml:space="preserve">
<g>
	<g>
		<path fill="#CBD50D" d="M290.9,157.3l0.2-1.5h3.8l-1.4-10.1h-10.8c-2.9,6-3.5,7-3.5,8.3c0,1.9,2,1.9,3.4,1.9l-0.3,1.4H273l0.3-1.4
			c1.8,0.1,3.1-1.5,4.5-4.3L293,121h12.2l5.1,34.8h3.1l-0.3,1.5H290.9L290.9,157.3z M293.3,144.1l-2.2-15.5H291l-7.6,15.5H293.3z"/>
		<path fill="#CBD50D" d="M320.9,122.5l0.3-1.5h23.6l-0.3,1.5h-4.2l-5.9,33.2c7.7,0,11.6-1.6,15.9-8.1c0.9-1.3,1.7-2.8,2.3-4.4h1.7
			l-2.6,14h-35.2l0.3-1.5h2l5.9-33.3L320.9,122.5L320.9,122.5z"/>
		<path fill="#CBD50D" d="M390.8,148.2c-2.6,8.5-6,9.9-10.5,9.9s-6.6-3.2-6.5-7.3l-0.1-0.1c-0.9,4.8-3.6,7.4-8.5,7.4
			c-6.8,0-10-5.3-10-11.6c0-7.8,6.1-14.7,13.1-14.7c4,0,6.4,1.4,7.5,5.3h0.1l0.9-4.8c0.9,0.1,1.7,0.1,2.7,0.2c1,0.1,1.9,0.1,2.9,0.1
			c1.7,0,4-0.2,6.3-0.3l-3.2,17.2c-0.7,3.7-0.5,4.8,0.6,4.8c1.7,0,3.2-4.8,3.7-6L390.8,148.2L390.8,148.2z M373.2,135.2
			c-1.6,0-2.1,0.3-3.1,3.7c-1.1,3.4-1.8,9.8-1.8,11.6c0,2.4,0.6,3.8,1.9,3.8c1.7,0,2.3-1.3,3.4-6.7c0.7-2.9,1.1-6.1,1.1-9
			C374.7,137.6,374.7,135.2,373.2,135.2z"/>
		<path fill="#CBD50D" d="M439,122.5l-5.9,33.2h4.1l-0.3,1.5h-22.7l0.3-1.5h3.8l5.7-30.8l-0.1-0.1l-15.6,32.4h-2.7l-3.2-32.4h-0.1
			l-4.5,26c-0.2,0.9-0.3,1.7-0.3,2.7c0,1.7,0.7,2.4,3.6,2.2l-0.3,1.5h-8.5l0.3-1.5c1.8,0.1,2.7-0.7,3.1-3.2l5.3-30.1h-4l0.3-1.5H415
			l1.6,14.9h0.1l7.2-14.9h17.2l-0.3,1.5L439,122.5L439,122.5z"/>
		<path fill="#CBD50D" d="M461.7,147.6c-2.3,8.8-6.4,10.3-10.4,10.3c-4.4,0-6.8-2.4-6.8-7s2.4-10.9,2.4-12.6c0-0.7-0.1-1.8-1.1-1.8
			c-1.4,0-2.3,2.9-3.2,6.2h-1.1c1.4-6.5,3.7-10.6,9.6-10.6c4.7,0,7.5,3.1,7.5,7.9c0,4.5-2.7,10.8-2.7,12.5c0,0.8,0.3,1.1,0.9,1.1
			c1.8,0,3-4.7,3.6-6L461.7,147.6L461.7,147.6z M452.8,129.6c-3.2,0-6.9-1-6.9-4.8c0-3.4,4-4.4,6.7-4.4c3.1,0,6.9,1,6.9,4.8
			C459.5,128.6,455.4,129.6,452.8,129.6z"/>
		<path fill="#CBD50D" d="M493.9,150.3c-4.4,5.5-10.5,7.8-17.6,7.8c-7.8,0-13.5-3.8-13.5-11.1c0-7.6,8.3-15.1,20-15.1
			c4.4,0,11.9,1.5,11.9,7.1c0,5-6.3,8-14,8c-2,0-3.3-0.1-4.7-0.2c-0.3,1-0.5,2.4-0.5,3.4c0,3.4,1.3,5.5,4.5,5.5
			c4.8,0,9-1.9,12.3-5.5L493.9,150.3L493.9,150.3z M480.7,133.3c-1.4,0-2.1,1.1-2.7,3.4c-0.6,2-1.5,6.3-1.8,9c1.4,0,3.2-0.2,4.1-0.9
			c1.4-1.2,2.7-5.4,2.7-9.2C482.9,134.1,482.5,133.3,480.7,133.3z"/>
		<path fill="#CBD50D" d="M498.5,141.7c1.2-5.2,4.4-9.9,10.1-9.9c4,0,6,1.9,5.8,8.7h0.1c1.7-5.7,4.1-8.7,8.3-8.7
			c3.2,0,5.8,2.1,5.8,5.4c0,3-1.8,5.9-5.8,5.9c-3.7,0-4.8-2.7-4.8-5c0-1.2-0.1-1.2-0.7-1.2c-0.7,0-2.1,2.4-5.2,20.8
			c-0.9-0.1-2-0.1-3.1-0.2c-1-0.1-2.2-0.1-3.3-0.1c-1.9,0-3.5,0.2-5.8,0.3l3.3-18.5c0.4-2.2,0.2-2.9-0.6-2.9c-0.7,0-1.6,1.4-2.9,5.5
			L498.5,141.7L498.5,141.7z"/>
		<path fill="#CBD50D" d="M547.1,122.5l0.3-1.5h4c4.4,0,8.5-0.3,13.1-0.6l-5.6,32c-0.2,0.9,0.2,1.7,0.8,1.7c1.8,0,3.1-4.7,3.7-6h1.2
			c-1.2,5.1-3.8,10-9.8,10c-4.8,0-6.8-2.3-6.9-6.9h-0.1c-1.1,4.3-4.3,6.9-8.9,6.9c-7.1,0-9.9-6.2-9.9-12c0-6,4.8-14.3,12.5-14.3
			c3.3,0,5.9,1.1,7.8,4.4h0.1l2.4-13.8L547.1,122.5L547.1,122.5z M541.9,151.1c0,2.6,0.8,3.4,2.1,3.4c1,0,2.1-0.7,3.2-5.8
			c1.1-4.6,1.3-7.6,1.3-10.1c0-2.3-0.6-2.9-2.1-2.9c-2.1,0-2.9,3.7-3.7,7.4C542.4,145.8,541.9,148.2,541.9,151.1z"/>
		<path fill="#CBD50D" d="M602.4,148.2c-2.6,8.5-6,9.9-10.5,9.9s-6.6-3.2-6.5-7.3l-0.1-0.1c-0.9,4.8-3.6,7.4-8.5,7.4
			c-6.8,0-10-5.3-10-11.6c0-7.8,6.1-14.7,13.1-14.7c4,0,6.4,1.4,7.5,5.3h0.1l0.9-4.8c0.9,0.1,1.7,0.1,2.7,0.2
			c0.9,0.1,1.9,0.1,2.8,0.1c1.7,0,4-0.2,6.3-0.3l-3.2,17.2c-0.7,3.7-0.5,4.8,0.6,4.8c1.7,0,3.2-4.8,3.7-6L602.4,148.2L602.4,148.2z
			 M584.6,135.2c-1.6,0-2.1,0.3-3.1,3.7c-1.1,3.4-1.8,9.8-1.8,11.6c0,2.4,0.6,3.8,1.9,3.8c1.7,0,2.3-1.3,3.4-6.7
			c0.7-2.9,1.1-6.1,1.1-9C586.2,137.6,586.2,135.2,584.6,135.2z"/>
		<path fill="#CBD50D" d="M611.9,145.8c3.7,0,7.2,2.3,7.2,5.8c0,3.9-3,6.4-7.6,6.4c-3.5,0-7.5-1.8-7.5-5.9
			C604,147.6,607.9,145.8,611.9,145.8z"/>
		<path fill="#CBD50D" d="M649.3,152.8c-3.3,3.3-8.6,5.3-13.5,5.3c-12.4,0-14.2-7.9-14.2-11.4c0-6.3,6.3-14.9,18.9-14.9
			c4.7,0,11,1.6,11,6.9c0,3.4-2.9,5.3-6,5.3c-2.9,0-5.8-1.9-5.8-5.1c0-3.6,2.7-3.8,2.7-4.6c0-1.2-1-1.4-2.2-1.4
			c-2.2,0-2.8,2.4-3.3,4c-0.9,3.1-2.1,8.1-2.1,13.1c0,3.6,1.4,5.6,4.8,5.6c3.1,0,6.1-1.8,8.5-3.6L649.3,152.8z"/>
		<path fill="#CBD50D" d="M667.6,151c-0.5,2.7-0.2,3.4,0.8,3.4c1.1,0,2.7-1.4,4.3-6.5h1.2c-1.7,5.6-4.3,10.1-10.5,10.1
			c-5.6,0-8.9-2-7.5-10l4.5-25.6h-4.7l0.3-1.5h3.9c4.4,0,8.5-0.3,13.1-0.6L667.6,151z"/>
	</g>
	<g>
		<path fill="#CBD50D" d="M290.4,199.6H288v-12.1c-0.7,1.3-1.6,2.3-2.7,2.9c-1,0.7-2.4,1-3.8,1c-2.5,0-4.4-0.9-5.9-2.6
			c-1.5-1.7-2.2-4-2.2-6.8s0.8-5.1,2.3-6.8s3.5-2.6,6-2.6c1.3,0,2.6,0.4,3.7,1c1,0.7,2,1.6,2.7,2.9v-3.2h2.4L290.4,199.6
			L290.4,199.6z M282.1,174.9c-1.8,0-3.2,0.7-4.3,1.9c-1,1.3-1.6,3-1.6,5.3s0.5,4,1.5,5.2c0.9,1.2,2.4,1.9,4.1,1.9
			c1.9,0,3.3-0.7,4.5-2s1.7-3.1,1.7-5.3s-0.6-3.9-1.6-5.2C285.3,175.6,283.9,174.9,282.1,174.9z"/>
		<path fill="#CBD50D" d="M299.2,173.4v8.7c0,2.7,0.4,4.6,1.1,5.6c0.8,1,2,1.6,3.8,1.6s3-0.6,3.8-1.6c0.8-1.1,1.1-2.9,1.1-5.6v-8.7
			h2.4v10c0,2.8-0.7,4.8-1.9,6.2c-1.2,1.4-3,2.1-5.5,2.1s-4.3-0.7-5.5-2.1c-1.2-1.4-1.9-3.4-1.9-6.2v-10H299.2z"/>
		<path fill="#CBD50D" d="M333.2,182.1h-13.9c0.1,2.3,0.7,4,1.7,5.3s2.5,1.9,4.3,1.9c1.3,0,2.4-0.4,3.4-1c1-0.7,1.8-1.7,2.5-3.1
			l2.2,1.2c-0.9,1.8-2,3-3.3,3.9s-2.9,1.2-4.8,1.2c-2.6,0-4.7-0.9-6.2-2.6c-1.6-1.7-2.4-4-2.4-6.7c0-2.9,0.8-5.2,2.4-6.9
			c1.6-1.8,3.6-2.7,6.2-2.7c2.4,0,4.4,0.9,5.8,2.5s2.2,3.8,2.2,6.5L333.2,182.1L333.2,182.1z M330.3,180.1c-0.1-1.6-0.7-2.9-1.6-3.7
			c-0.9-0.9-2.2-1.3-3.8-1.3c-1.5,0-2.7,0.5-3.7,1.4s-1.6,2.2-1.7,3.7L330.3,180.1L330.3,180.1z"/>
		<path fill="#CBD50D" d="M347.9,187.7l2.3-1.3c0.4,0.9,0.9,1.7,1.6,2.2c0.8,0.5,1.6,0.8,2.7,0.8c1,0,1.8-0.3,2.5-0.8
			c0.6-0.5,1-1.2,1-2.1c0-1.3-1.2-2.5-3.6-3.4c-0.3-0.1-0.5-0.2-0.6-0.2c-1.8-0.8-3.1-1.4-3.9-2.3c-0.8-0.8-1.1-1.7-1.1-2.8
			c0-1.5,0.6-2.7,1.6-3.7c1-0.9,2.4-1.4,4.1-1.4c1.4,0,2.7,0.3,3.6,1c1,0.7,1.7,1.5,2.2,2.7l-2.2,1.2c-0.3-0.9-0.8-1.4-1.4-1.9
			c-0.7-0.5-1.4-0.7-2.4-0.7c-0.9,0-1.5,0.3-2.1,0.8s-0.9,1.1-0.9,1.8c0,0.8,0.3,1.3,0.9,1.8s1.6,0.9,3.3,1.5
			c1.9,0.7,3.2,1.4,3.9,2.2c0.7,0.8,1,1.9,1,3.2c0,1.6-0.6,2.9-1.7,3.8c-1.1,0.9-2.7,1.4-4.7,1.4c-1.5,0-2.8-0.4-3.8-1
			C349.1,189.9,348.3,189,347.9,187.7z"/>
		<path fill="#CBD50D" d="M380.3,182.1h-13.9c0.1,2.3,0.7,4,1.7,5.3s2.5,1.9,4.3,1.9c1.3,0,2.4-0.4,3.4-1c0.9-0.7,1.8-1.7,2.5-3.1
			l2.2,1.2c-0.9,1.8-2,3-3.3,3.9s-2.9,1.2-4.8,1.2c-2.6,0-4.7-0.9-6.2-2.6c-1.6-1.7-2.4-4-2.4-6.7c0-2.9,0.8-5.2,2.4-6.9
			c1.6-1.8,3.6-2.7,6.2-2.7c2.4,0,4.4,0.9,5.8,2.5s2.2,3.8,2.2,6.5L380.3,182.1L380.3,182.1z M377.4,180.1c-0.1-1.6-0.7-2.9-1.6-3.7
			c-1-0.9-2.2-1.3-3.8-1.3c-1.5,0-2.7,0.5-3.7,1.4c-0.9,0.9-1.6,2.2-1.7,3.7L377.4,180.1L377.4,180.1z"/>
		<path fill="#CBD50D" d="M394.3,173.4h2.7l5.3,13.3l5.3-13.3h2.7l-8.1,18.6L394.3,173.4z"/>
		<path fill="#CBD50D" d="M427.1,190.9v-3.2c-0.6,1.3-1.4,2.3-2.5,2.9c-1,0.7-2.3,1-3.7,1c-2.5,0-4.6-0.9-6.1-2.6
			c-1.5-1.7-2.3-4-2.3-6.8s0.8-5.1,2.3-6.8c1.5-1.8,3.4-2.7,5.9-2.7c1.5,0,2.8,0.3,3.9,0.9c1,0.7,1.9,1.6,2.5,2.8v-3.2h2.5v17.5
			L427.1,190.9L427.1,190.9z M415.3,182.3c0,2.3,0.5,4,1.5,5.2s2.5,1.8,4.4,1.8c1.8,0,3.3-0.7,4.4-2c1-1.3,1.6-3.1,1.6-5.5
			c0-2.2-0.6-3.8-1.6-5s-2.5-1.8-4.3-1.8s-3.2,0.7-4.4,2C415.8,178.2,415.3,180,415.3,182.3z"/>
		<path fill="#CBD50D" d="M433.7,173.4h2.6l5,13.7l4.7-13.7h2.6l-9,26.3H437l3-8.9L433.7,173.4z"/>
		<path fill="#CBD50D" d="M465.2,190.9v-3.2c-0.6,1.3-1.4,2.3-2.5,2.9c-1,0.7-2.3,1-3.7,1c-2.5,0-4.6-0.9-6.1-2.6
			c-1.5-1.7-2.3-4-2.3-6.8s0.8-5.1,2.3-6.8c1.5-1.8,3.4-2.7,5.9-2.7c1.5,0,2.8,0.3,3.9,0.9c1,0.7,1.9,1.6,2.5,2.8v-3.2h2.5v17.5
			L465.2,190.9L465.2,190.9z M453.4,182.3c0,2.3,0.5,4,1.5,5.2s2.5,1.8,4.4,1.8c1.8,0,3.3-0.7,4.4-2c1-1.3,1.6-3.1,1.6-5.5
			c0-2.2-0.6-3.8-1.6-5s-2.5-1.8-4.3-1.8s-3.2,0.7-4.4,2C454,178.2,453.4,180,453.4,182.3z"/>
		<path fill="#CBD50D" d="M498.8,190.9v-3.2c-0.6,1.3-1.4,2.3-2.5,2.9c-1,0.7-2.3,1-3.7,1c-2.5,0-4.6-0.9-6.1-2.6
			c-1.5-1.7-2.3-4-2.3-6.8s0.8-5.1,2.3-6.8c1.5-1.8,3.4-2.7,5.9-2.7c1.5,0,2.8,0.3,3.9,0.9c1,0.7,1.9,1.6,2.5,2.8v-3.2h2.5v17.5
			L498.8,190.9L498.8,190.9z M487,182.3c0,2.3,0.5,4,1.5,5.2s2.5,1.8,4.4,1.8c1.8,0,3.3-0.7,4.4-2c1-1.3,1.6-3.1,1.6-5.5
			c0-2.2-0.6-3.8-1.6-5s-2.5-1.8-4.3-1.8s-3.2,0.7-4.4,2C487.4,178.2,487,180,487,182.3z"/>
		<path fill="#CBD50D" d="M521.9,190.9h-2.5v-30.6h2.5V190.9z"/>
		<path fill="#CBD50D" d="M541.5,190.9v-3.2c-0.6,1.3-1.4,2.3-2.5,2.9c-1,0.7-2.3,1-3.7,1c-2.5,0-4.6-0.9-6.1-2.6
			c-1.5-1.7-2.3-4-2.3-6.8s0.8-5.1,2.3-6.8c1.5-1.8,3.4-2.7,5.9-2.7c1.5,0,2.8,0.3,3.9,0.9c1,0.7,1.9,1.6,2.5,2.8v-3.2h2.5v17.5
			L541.5,190.9L541.5,190.9z M529.7,182.3c0,2.3,0.5,4,1.5,5.2s2.5,1.8,4.4,1.8c1.8,0,3.3-0.7,4.4-2c1-1.3,1.6-3.1,1.6-5.5
			c0-2.2-0.6-3.8-1.6-5s-2.5-1.8-4.3-1.8s-3.2,0.7-4.4,2C530.3,178.2,529.7,180,529.7,182.3z"/>
		<path fill="#CBD50D" d="M564.5,190.9H562v-17.5h2.5v2.8c0.6-1.1,1.3-1.9,2.3-2.6c1-0.6,2-0.9,3.2-0.9s2.4,0.3,3.2,0.9
			c0.9,0.6,1.6,1.4,2.1,2.6c0.7-1.1,1.5-2,2.6-2.6c1-0.6,2.2-0.9,3.5-0.9c1.9,0,3.3,0.6,4.4,1.7c1,1.1,1.6,2.7,1.6,4.7V191h-2.5v-11
			c0-1.7-0.4-3-1-3.9c-0.7-0.9-1.7-1.3-3.1-1.3c-1.7,0-2.9,0.6-3.7,1.6s-1.1,2.9-1.1,5.2v9.2h-2.4V180c0-1.8-0.4-3.1-1-3.9
			c-0.7-0.9-1.7-1.2-3.1-1.2c-1.7,0-2.9,0.6-3.8,1.6c-0.8,1.1-1.2,2.9-1.2,5.1V190.9L564.5,190.9L564.5,190.9z"/>
		<path fill="#CBD50D" d="M593.5,166.6c0-0.5,0.2-0.9,0.6-1.3c0.4-0.4,0.9-0.6,1.3-0.6c0.5,0,1,0.2,1.3,0.6c0.4,0.4,0.6,0.8,0.6,1.3
			c0,0.6-0.2,0.9-0.6,1.3c-0.4,0.4-0.9,0.6-1.3,0.6c-0.6,0-1-0.2-1.3-0.6C593.7,167.5,593.5,167,593.5,166.6z M594.1,190.9v-17.5
			h2.5v17.5H594.1z"/>
		<path fill="#CBD50D" d="M618.3,182.1h-13.9c0.1,2.3,0.7,4,1.7,5.3s2.5,1.9,4.3,1.9c1.3,0,2.4-0.4,3.4-1c1-0.7,1.8-1.7,2.5-3.1
			l2.2,1.2c-0.9,1.8-2,3-3.3,3.9s-2.8,1.2-4.8,1.2c-2.6,0-4.7-0.9-6.2-2.6c-1.6-1.7-2.4-4-2.4-6.7c0-2.9,0.8-5.2,2.4-6.9
			c1.6-1.8,3.6-2.7,6.2-2.7c2.4,0,4.4,0.9,5.8,2.5c1.4,1.6,2.2,3.8,2.2,6.5L618.3,182.1L618.3,182.1z M615.4,180.1
			c-0.1-1.6-0.7-2.9-1.6-3.7s-2.2-1.3-3.8-1.3c-1.5,0-2.7,0.5-3.7,1.4c-0.9,0.9-1.5,2.2-1.7,3.7L615.4,180.1L615.4,180.1z"/>
		<path fill="#CBD50D" d="M625.8,176.9c0.9-1.5,1.8-2.6,2.7-3.2c0.9-0.7,1.9-0.9,3-0.9c0.4,0,0.7,0,1,0.1s0.7,0.2,1,0.3l-0.8,2.3
			c-0.3-0.1-0.6-0.2-0.9-0.2c-0.3-0.1-0.6-0.1-0.9-0.1c-1.4,0-2.7,0.7-3.7,2.1c-1,1.3-1.5,3-1.5,5.1v8.6h-2.5v-17.5h2.5L625.8,176.9
			L625.8,176.9z"/>
		<path fill="#CBD50D" d="M648.9,190.9v-3.2c-0.6,1.3-1.4,2.3-2.5,2.9c-1,0.7-2.3,1-3.7,1c-2.5,0-4.6-0.9-6.1-2.6
			c-1.5-1.7-2.3-4-2.3-6.8s0.8-5.1,2.3-6.8c1.5-1.8,3.4-2.7,5.9-2.7c1.5,0,2.8,0.3,3.8,0.9s1.9,1.6,2.5,2.8v-16.2h2.5v30.6
			L648.9,190.9L648.9,190.9z M637.3,182.3c0,2.3,0.5,4,1.5,5.2s2.5,1.8,4.4,1.8c1.8,0,3.2-0.7,4.3-2c1-1.3,1.6-3.1,1.6-5.5
			c0-2.2-0.5-3.8-1.5-5s-2.5-1.8-4.3-1.8s-3.2,0.7-4.4,2C637.7,178.2,637.3,180,637.3,182.3z"/>
		<path fill="#CBD50D" d="M670.8,190.9v-3.2c-0.6,1.3-1.4,2.3-2.5,2.9c-1,0.7-2.3,1-3.7,1c-2.5,0-4.6-0.9-6.1-2.6
			c-1.5-1.7-2.3-4-2.3-6.8s0.8-5.1,2.3-6.8c1.5-1.8,3.4-2.7,5.9-2.7c1.5,0,2.8,0.3,3.9,0.9c1,0.7,1.9,1.6,2.5,2.8v-3.2h2.5v17.5
			L670.8,190.9L670.8,190.9z M659,182.3c0,2.3,0.5,4,1.5,5.2s2.5,1.8,4.4,1.8c1.8,0,3.3-0.7,4.4-2c1-1.3,1.6-3.1,1.6-5.5
			c0-2.2-0.6-3.8-1.6-5s-2.5-1.8-4.3-1.8s-3.2,0.7-4.4,2C659.6,178.2,659,180,659,182.3z"/>
	</g>
</g>
</svg>
